<?xml version="1.0" encoding="utf-8"?>
<!-- Generator: Adobe Illustrator 21.0.2, SVG Export Plug-In . SVG Version: 6.00 Build 0)  -->
<svg version="1.1" id="Layer_1" xmlns="http://www.w3.org/2000/svg" xmlns:xlink="http://www.w3.org/1999/xlink" x="0px" y="0px"
	 viewBox="0 0 90 90" style="enable-background:new 0 0 90 90;" xml:space="preserve">
<style type="text/css">
	.st0{fill:#EF305E;}
</style>
<g>
	<path class="st0" d="M18,15.3c0,0,18.7-3.3,20.7-2.3s17.8,11.8,17.8,11.8s-5.8,3.8-6.1,4c-0.5-0.6-1.3-2.4-1.3-2.4l-12-4.7
		L20.6,35.8l-0.5,4.9L9.2,43.3l7.6-3.2L15.7,24L18,15.3z"/>
	<polygon class="st0" points="46.3,17.2 57.3,24.5 61.5,35 70,23.8 66.5,9.6 58.7,11.5 	"/>
	<path class="st0" d="M76,18.8l-6.7,6.7l-0.5,26.7l3.4,0.4l7-9.9l4.6-4.3l0.2-0.2C84,38.1,80.9,25.6,76,18.8z"/>
	<polygon class="st0" points="86.2,42.1 84,38.7 82.3,40.2 	"/>
	<polygon class="st0" points="82.1,40.6 81.3,41.5 83.7,46.5 86.2,42.6 	"/>
	<polygon class="st0" points="80.8,41.6 85.4,50.8 79.9,53.1 72.7,52.6 79.6,43 	"/>
	<path class="st0" d="M68.8,26.1l-0.6,26.1c0,0-15.6,0.1-23-2.9c-2.8-2.2-8.4-9.4-8.4-9.4l3-6.7l5.1,5.8c0,0,9,3.5,12.7,2.9
		C60.8,36.6,68.8,26.1,68.8,26.1z"/>
	<polygon class="st0" points="16.1,35.7 9.2,42.8 16.3,39.8 	"/>
	<polygon class="st0" points="45.4,38.6 50.2,36.7 45.8,32.6 40.3,33.1 	"/>
	<path class="st0" d="M55,35l-8.9,4c0,0,7.8,2.8,11.2,2.5C57.7,38.6,55.8,36.1,55,35z"/>
	<polygon class="st0" points="56.9,25 61.1,35.6 58.6,39.6 	"/>
	<path class="st0" d="M56.3,25.4l-5.5,3.7c0,0,7.5,7.4,7.2,11.5C57.8,35.7,57,26.6,56.3,25.4z"/>
	<path class="st0" d="M54.6,34.6l-3.9,1.9l-4.6-4.2l-6.3,0.3l-3.4,7c0,0-1.9-4.4,1.1-9.8c5.2-1.2,9.8-2.6,10.6-2.2
		S54.6,34.6,54.6,34.6z"/>
	<polygon class="st0" points="48.6,26.6 37.1,22.3 37.5,29.1 48,26.8 49.9,28.6 	"/>
	<path class="st0" d="M36.4,22.9l0.2-0.5l0.3,6.9c0,0-7.5,8.2-7.4,23.8L21,36.3L36.4,22.9z"/>
	<path class="st0" d="M67.7,67.2l10.1,13.2c0,0-9.2-2.2-41.6,0c-0.6-5.6-1.2-9.1-1.2-9.1S61.5,73,67.7,67.2z"/>
	<path class="st0" d="M85.4,51.2c0,0-17.5,15.5-19.2,16.2c-0.9,1.5-23.1,6.9-29.8,0.6c-3.3-7.2-6.6-13.1-6.5-14.3S29.7,40.6,36,31.5
		c0,0-2.1,6.2,0.8,10c2.6,3,7.9,8.5,7.9,8.5s8.4,3.5,23.4,2.8c7.9,0.9,11.6,1,11.6,1L85.4,51.2z"/>
	<path class="st0" d="M8.6,44L20,41.3c0,0-0.3,12.2,0.7,14.3s12.8,13.6,13.5,15.8C31,72.5,31,72.5,31,72.5s-18.3-5.9-27.2-6.6
		C4.8,61.7,6.9,45.5,8.6,44z"/>
	<path class="st0" d="M20.8,37.5c0,0,14.6,30.5,15,31s3.6,2.2,6.6,2.6c-4.1-0.4-7.4-0.6-7.4-0.6S21.4,56.3,20.8,54.6
		S20.8,37.5,20.8,37.5z"/>
</g>
</svg>
